<?xml version="1.0" standalone="no"?>
<!DOCTYPE svg PUBLIC "-//W3C//DTD SVG 20010904//EN"
 "http://www.w3.org/TR/2001/REC-SVG-20010904/DTD/svg10.dtd">
<svg version="1.0" xmlns="http://www.w3.org/2000/svg"
 width="1280.000000pt" height="40.000000pt" viewBox="0 0 1280.000000 40.000000"
 preserveAspectRatio="xMidYMid meet">
<metadata>
Created by potrace 1.16, written by Peter Selinger 2001-2019
</metadata>
<g transform="translate(0.000000,180.000000) scale(0.100000,-0.100000)"
fill="#000000" stroke="none">
<path d="M635 2250 c-184 -23 -332 -117 -393 -249 -22 -48 -26 -71 -26 -156
-1 -122 21 -181 94 -249 77 -73 179 -116 398 -171 201 -50 266 -89 266 -160 0
-50 -20 -80 -75 -110 -100 -54 -257 -41 -336 28 -40 35 -72 97 -73 140 l0 27
-160 0 -160 0 0 -49 c0 -67 32 -165 75 -228 63 -93 187 -170 322 -198 89 -19
263 -19 355 0 156 32 287 124 344 242 24 49 29 73 32 158 3 84 0 109 -18 157
-49 132 -171 213 -405 269 -275 66 -335 95 -335 166 0 44 49 96 105 112 141
39 282 -20 300 -127 l7 -42 154 0 c177 0 166 -10 138 110 -45 200 -214 316
-484 334 -36 2 -92 0 -125 -4z m237 -35 c95 -20 186 -63 242 -115 55 -51 103
-144 112 -218 l7 -53 -128 3 -127 3 -13 39 c-34 97 -101 138 -228 140 -69 1
-90 -3 -132 -24 -55 -28 -95 -78 -95 -120 0 -40 39 -91 90 -116 25 -12 113
-39 195 -59 290 -70 393 -127 451 -251 47 -99 41 -235 -14 -338 -90 -166 -358
-257 -622 -212 -166 29 -302 113 -363 223 -23 44 -56 154 -57 191 0 10 31 12
136 10 l137 -3 12 -43 c28 -92 102 -152 214 -172 195 -35 363 90 296 220 -29
57 -97 88 -303 140 -272 68 -371 129 -427 262 -23 57 -20 184 7 255 40 109
170 206 317 239 79 17 207 17 293 -1z"/>
<path d="M9040 2250 c-167 -21 -316 -113 -378 -236 -75 -148 -38 -340 84 -439
67 -55 165 -95 358 -144 88 -23 181 -54 208 -68 106 -58 102 -160 -9 -214 -69
-34 -206 -34 -276 0 -62 30 -104 82 -118 148 l-12 53 -159 0 -158 0 0 -38 c0
-54 26 -147 57 -205 34 -62 126 -147 195 -181 130 -63 343 -85 503 -51 263 56
417 255 376 486 -33 188 -144 271 -471 353 -247 61 -300 93 -286 170 17 90
168 134 301 88 57 -19 92 -62 101 -124 l7 -38 153 0 154 0 0 33 c0 94 -59 219
-136 286 -105 92 -312 143 -494 121z"/>
<path d="M10577 2249 c-134 -18 -241 -71 -321 -161 -64 -70 -89 -142 -89 -250
0 -78 3 -94 32 -152 60 -122 161 -181 429 -250 93 -25 193 -56 221 -70 78 -40
100 -99 61 -164 -33 -53 -97 -77 -205 -77 -78 1 -97 5 -142 28 -64 33 -99 77
-114 145 l-12 52 -159 0 -158 0 0 -32 c0 -54 29 -158 57 -210 34 -63 124 -147
195 -181 131 -64 341 -86 503 -52 109 23 224 84 284 152 73 81 94 143 95 268
0 86 -4 108 -26 156 -61 133 -168 196 -454 264 -229 55 -279 83 -279 157 0 78
89 125 221 115 111 -8 164 -47 182 -133 l8 -39 153 -3 154 -3 -6 58 c-21 225
-201 367 -487 386 -41 2 -105 1 -143 -4z"/>
<path d="M1768 2223 c-2 -9 -2 -313 0 -675 l2 -658 155 0 155 0 0 675 0 675
-154 0 c-137 0 -155 -2 -158 -17z m292 -663 l0 -651 -132 3 -133 3 -3 648 -2
647 135 0 135 0 0 -650z"/>
<path d="M2756 2228 c-3 -7 -25 -119 -50 -248 -82 -424 -177 -914 -192 -987
-22 -114 -38 -104 158 -101 l172 3 27 160 c15 88 46 270 69 405 22 135 44 253
48 263 5 12 48 -126 125 -396 64 -227 117 -419 117 -425 0 -9 43 -12 158 -12
l157 0 120 424 c66 233 123 422 126 420 4 -2 9 -23 12 -46 3 -24 21 -137 41
-253 20 -115 48 -275 61 -355 14 -80 27 -155 30 -167 5 -23 7 -23 179 -23
l173 0 -28 143 c-16 78 -56 284 -89 457 -34 173 -80 412 -104 530 l-42 215
-184 0 -184 0 -47 -160 c-211 -715 -214 -725 -222 -714 -2 2 -62 200 -133 439
l-130 435 -182 3 c-141 2 -183 0 -186 -10z m417 -245 c38 -126 100 -336 139
-468 39 -132 74 -243 77 -247 4 -4 41 110 84 255 160 546 199 672 206 680 4 4
79 6 166 5 l159 -3 54 -275 c29 -151 84 -435 122 -631 39 -195 70 -363 70
-372 0 -15 -15 -17 -144 -17 l-144 0 -6 27 c-3 16 -19 109 -35 208 -17 99 -46
270 -65 380 -19 110 -37 219 -41 242 -7 45 -25 67 -34 42 -3 -8 -62 -212 -131
-454 l-126 -440 -133 0 -134 0 -128 449 c-70 246 -130 451 -134 454 -14 15
-25 -28 -59 -228 -67 -398 -106 -625 -112 -652 l-6 -28 -144 0 c-167 0 -154
-13 -124 130 17 84 102 517 191 980 17 85 32 163 35 173 5 15 22 17 167 17
l162 0 68 -227z"/>
<path d="M4700 1565 l0 -675 160 0 160 0 0 235 0 235 124 0 c152 0 227 20 313
83 93 69 144 158 163 285 38 241 -123 469 -351 502 -35 5 -178 10 -316 10
l-253 0 0 -675z m672 607 c76 -37 152 -114 188 -189 13 -26 28 -80 33 -120 28
-189 -54 -358 -211 -435 -66 -33 -69 -33 -229 -36 l-163 -4 0 -239 0 -239
-135 0 -135 0 0 651 0 650 293 -3 293 -3 66 -33z"/>
<path d="M4990 1800 l0 -210 100 0 c140 0 190 22 233 105 26 50 28 155 4 201
-22 43 -80 91 -124 103 -21 6 -77 11 -125 11 l-88 0 0 -210z m244 157 c60 -34
89 -95 83 -175 -4 -47 -11 -70 -31 -97 -41 -53 -72 -65 -176 -65 l-90 0 0 180
0 180 88 0 c71 0 94 -4 126 -23z"/>
<path d="M6060 1565 l0 -675 395 0 395 0 0 145 0 145 -235 0 -235 0 -2 528 -3
527 -157 3 -158 3 0 -676z m290 115 l0 -530 240 0 241 0 -3 -117 -3 -118 -370
0 -370 0 -3 648 -2 647 135 0 135 0 0 -530z"/>
<path d="M7327 2233 c-4 -3 -7 -307 -7 -675 l0 -668 400 0 400 0 0 145 0 145
-240 0 -240 0 0 120 0 120 230 0 230 0 0 145 0 145 -230 0 -231 0 3 118 3 117
238 3 238 2 -3 143 -3 142 -391 3 c-215 1 -393 -1 -397 -5z m763 -143 l0 -120
-235 0 -235 0 0 -145 0 -145 225 0 225 0 0 -115 0 -115 -225 0 -225 0 0 -150
0 -150 235 0 235 0 0 -120 0 -120 -370 0 -370 0 0 650 0 650 370 0 370 0 0
-120z"/>
<path d="M11610 2095 l0 -145 190 0 190 0 0 -530 0 -530 160 0 160 0 0 530 0
530 190 0 191 0 -3 143 -3 142 -537 3 -538 2 0 -145z"/>
</g>
</svg>
